<svg width="50" height="50" viewBox="0 0 50 50" fill="none" xmlns="http://www.w3.org/2000/svg">
<circle cx="25" cy="25" r="25" fill="#1D1E20"/>
<mask id="mask0_84_254" style="mask-type:alpha" maskUnits="userSpaceOnUse" x="13" y="13" width="24" height="24">
<rect x="13" y="13" width="24" height="24" fill="#D9D9D9"/>
</mask>
<g mask="url(#mask0_84_254)">
<path d="M23.825 35C23.375 35 22.9875 34.85 22.6625 34.55C22.3375 34.25 22.1416 33.8833 22.075 33.45L21.85 31.8C21.6333 31.7167 21.4291 31.6167 21.2375 31.5C21.0458 31.3833 20.8583 31.2583 20.675 31.125L19.125 31.775C18.7083 31.9583 18.2916 31.975 17.875 31.825C17.4583 31.675 17.1333 31.4083 16.9 31.025L15.725 28.975C15.4916 28.5917 15.425 28.1833 15.525 27.75C15.625 27.3167 15.85 26.9583 16.2 26.675L17.525 25.675C17.5083 25.5583 17.5 25.4458 17.5 25.3375V24.6625C17.5 24.5542 17.5083 24.4417 17.525 24.325L16.2 23.325C15.85 23.0417 15.625 22.6833 15.525 22.25C15.425 21.8167 15.4916 21.4083 15.725 21.025L16.9 18.975C17.1333 18.5917 17.4583 18.325 17.875 18.175C18.2916 18.025 18.7083 18.0417 19.125 18.225L20.675 18.875C20.8583 18.7417 21.05 18.6167 21.25 18.5C21.45 18.3833 21.65 18.2833 21.85 18.2L22.075 16.55C22.1416 16.1167 22.3375 15.75 22.6625 15.45C22.9875 15.15 23.375 15 23.825 15H26.175C26.625 15 27.0125 15.15 27.3375 15.45C27.6625 15.75 27.8583 16.1167 27.925 16.55L28.15 18.2C28.3666 18.2833 28.5708 18.3833 28.7625 18.5C28.9541 18.6167 29.1416 18.7417 29.325 18.875L30.875 18.225C31.2916 18.0417 31.7083 18.025 32.125 18.175C32.5416 18.325 32.8666 18.5917 33.1 18.975L34.275 21.025C34.5083 21.4083 34.575 21.8167 34.475 22.25C34.375 22.6833 34.15 23.0417 33.8 23.325L32.475 24.325C32.4916 24.4417 32.5 24.5542 32.5 24.6625V25.3375C32.5 25.4458 32.4833 25.5583 32.45 25.675L33.775 26.675C34.125 26.9583 34.35 27.3167 34.45 27.75C34.55 28.1833 34.4833 28.5917 34.25 28.975L33.05 31.025C32.8166 31.4083 32.4916 31.675 32.075 31.825C31.6583 31.975 31.2416 31.9583 30.825 31.775L29.325 31.125C29.1416 31.2583 28.95 31.3833 28.75 31.5C28.55 31.6167 28.35 31.7167 28.15 31.8L27.925 33.45C27.8583 33.8833 27.6625 34.25 27.3375 34.55C27.0125 34.85 26.625 35 26.175 35H23.825ZM24 33H25.975L26.325 30.35C26.8416 30.2167 27.3208 30.0208 27.7625 29.7625C28.2041 29.5042 28.6083 29.1917 28.975 28.825L31.45 29.85L32.425 28.15L30.275 26.525C30.3583 26.2917 30.4166 26.0458 30.45 25.7875C30.4833 25.5292 30.5 25.2667 30.5 25C30.5 24.7333 30.4833 24.4708 30.45 24.2125C30.4166 23.9542 30.3583 23.7083 30.275 23.475L32.425 21.85L31.45 20.15L28.975 21.2C28.6083 20.8167 28.2041 20.4958 27.7625 20.2375C27.3208 19.9792 26.8416 19.7833 26.325 19.65L26 17H24.025L23.675 19.65C23.1583 19.7833 22.6791 19.9792 22.2375 20.2375C21.7958 20.4958 21.3916 20.8083 21.025 21.175L18.55 20.15L17.575 21.85L19.725 23.45C19.6416 23.7 19.5833 23.95 19.55 24.2C19.5166 24.45 19.5 24.7167 19.5 25C19.5 25.2667 19.5166 25.525 19.55 25.775C19.5833 26.025 19.6416 26.275 19.725 26.525L17.575 28.15L18.55 29.85L21.025 28.8C21.3916 29.1833 21.7958 29.5042 22.2375 29.7625C22.6791 30.0208 23.1583 30.2167 23.675 30.35L24 33ZM25.05 28.5C26.0166 28.5 26.8416 28.1583 27.525 27.475C28.2083 26.7917 28.55 25.9667 28.55 25C28.55 24.0333 28.2083 23.2083 27.525 22.525C26.8416 21.8417 26.0166 21.5 25.05 21.5C24.0666 21.5 23.2375 21.8417 22.5625 22.525C21.8875 23.2083 21.55 24.0333 21.55 25C21.55 25.9667 21.8875 26.7917 22.5625 27.475C23.2375 28.1583 24.0666 28.5 25.05 28.5Z" fill="white"/>
</g>
</svg>
