<svg width="74" height="22" viewBox="0 0 74 22" fill="none" xmlns="http://www.w3.org/2000/svg">
<path d="M0 0H18.2857L24 11H5.71429L0 0Z" fill="#1D1E20"/>
<path d="M0 10.9999H18.2857L24 21.9999H5.71429L0 10.9999Z" fill="#1D1E20"/>
<path d="M28.25 5.1875H30.8125L32.7188 13.0938H32.8125L34.8906 5.1875H37.0938L39.1719 13.1094H39.2656L41.1719 5.1875H43.7344L40.5 16.5H38.2031L36.0469 9.03125H35.9531L33.7812 16.5H31.4844L28.25 5.1875ZM43.1562 16.5L47.0781 5.1875H50.0938L54 16.5H51.4844L50.6328 13.8906H46.5391L45.6875 16.5H43.1562ZM50.0391 12.0625L48.625 7.73438H48.5469L47.1328 12.0625H50.0391ZM58.625 13.8125H58.7344L61.5 5.1875H64.0938L60.1875 16.5H57.1719L53.25 5.1875H55.875L58.625 13.8125ZM65.375 5.1875H72.9688V7.125H67.7188V9.875H72.5781V11.8125H67.7188V14.5625H72.9844V16.5H65.375V5.1875Z" fill="#1D1E20"/>
</svg>
